<?xml version="1.0" encoding="UTF-8" standalone="no"?>
<svg
   xmlns:dc="http://purl.org/dc/elements/1.1/"
   xmlns:cc="http://creativecommons.org/ns#"
   xmlns:rdf="http://www.w3.org/1999/02/22-rdf-syntax-ns#"
   xmlns:svg="http://www.w3.org/2000/svg"
   xmlns="http://www.w3.org/2000/svg"
   xmlns:sodipodi="http://sodipodi.sourceforge.net/DTD/sodipodi-0.dtd"
   xmlns:inkscape="http://www.inkscape.org/namespaces/inkscape"
   version="1.0"
   width="208.000000pt"
   height="95.000000pt"
   viewBox="0 0 208.000000 95.000000"
   preserveAspectRatio="xMidYMid meet"
   id="svg2"
   inkscape:version="0.91 r13725"
   sodipodi:docname="logo-upb-small.svg">
  <metadata
     id="metadata22">
    <rdf:RDF>
      <cc:Work
         rdf:about="">
        <dc:format>image/svg+xml</dc:format>
        <dc:type
           rdf:resource="http://purl.org/dc/dcmitype/StillImage" />
      </cc:Work>
    </rdf:RDF>
  </metadata>
  <defs
     id="defs20" />
  <sodipodi:namedview
     pagecolor="#ffffff"
     bordercolor="#666666"
     borderopacity="1"
     objecttolerance="10"
     gridtolerance="10"
     guidetolerance="10"
     inkscape:pageopacity="0"
     inkscape:pageshadow="2"
     inkscape:window-width="843"
     inkscape:window-height="581"
     id="namedview18"
     showgrid="false"
     inkscape:zoom="1.1923077"
     inkscape:cx="226.03226"
     inkscape:cy="59.375"
     inkscape:window-x="0"
     inkscape:window-y="0"
     inkscape:window-maximized="0"
     inkscape:current-layer="svg2" />
  <g
     transform="matrix(0.07331039,0,0,-0.06213207,12.611211,96.839653)"
     id="g4"
     style="fill:#000000;stroke:none">
    <path
       d="m 1531,802 c -46,-23 -71,-59 -78,-111 -6,-42 -5,-43 23,-39 23,2 30,9 35,38 23,111 189,104 189,-7 0,-53 -18,-74 -113,-132 -46,-27 -90,-58 -100,-68 -22,-25 -47,-87 -47,-118 l 0,-25 160,0 160,0 0,25 0,25 -130,0 c -77,0 -130,4 -130,10 0,23 68,83 131,116 38,20 83,52 100,72 29,33 31,39 27,98 -3,44 -10,69 -23,85 -44,49 -141,64 -204,31 z"
       id="path6"
       inkscape:connector-curvature="0" />
    <path
       d="m 1771,588 c -26,-187 -27,-168 5,-168 15,0 36,8 47,18 27,24 108,23 136,-2 72,-65 29,-196 -65,-196 -47,0 -82,19 -96,52 -10,21 -20,28 -40,28 -34,0 -36,-19 -8,-65 25,-41 75,-65 133,-65 92,0 149,43 168,125 18,81 -10,143 -80,180 -34,17 -106,17 -145,0 -18,-8 -18,-5 -11,51 4,32 9,62 12,67 2,4 49,7 104,7 99,0 99,0 99,25 l 0,25 -124,0 -124,0 -11,-82 z"
       id="path8"
       inkscape:connector-curvature="0" />
    <path
       d="m 20,472 c 0,-154 2,-171 22,-212 27,-53 68,-79 137,-87 102,-12 178,31 200,112 6,22 11,111 11,198 l 0,157 -44,0 -44,0 -4,-171 -3,-171 -29,-25 c -24,-21 -37,-24 -69,-20 -76,10 -82,24 -85,217 l -4,170 -44,0 -44,0 0,-168 z"
       id="path10"
       inkscape:connector-curvature="0" />
    <path
       d="m 482,413 3,-227 45,0 45,0 3,82 3,82 70,0 c 119,0 169,35 177,123 6,76 -16,122 -70,147 -35,16 -66,20 -161,20 l -117,0 2,-227 z m 238,127 c 27,-27 25,-66 -5,-95 -20,-21 -34,-25 -80,-25 l -55,0 0,70 0,70 60,0 c 47,0 64,-4 80,-20 z"
       id="path12"
       inkscape:connector-curvature="0" />
    <path
       d="m 910,413 0,-228 137,3 c 193,5 233,28 233,137 0,38 -5,52 -30,77 l -30,30 25,30 c 31,37 33,85 3,123 -35,45 -74,55 -213,55 l -125,0 0,-227 z m 251,137 c 23,-13 25,-47 2,-72 -13,-14 -31,-18 -90,-18 l -73,0 0,50 0,50 71,0 c 39,0 79,-5 90,-10 z m 15,-185 c 20,-27 17,-62 -6,-85 -16,-16 -33,-20 -95,-20 l -75,0 0,66 0,67 81,-5 c 65,-4 85,-9 95,-23 z"
       id="path14"
       inkscape:connector-curvature="0" />
    <path
       d="m 1223,50 c 0,-25 2,-35 4,-22 2,12 2,32 0,45 -2,12 -4,2 -4,-23 z"
       id="path16"
       inkscape:connector-curvature="0" />
  </g>
  <text
     xml:space="preserve"
     style="font-style:normal;font-weight:normal;font-size:39.86672211px;line-height:125%;font-family:sans-serif;letter-spacing:0px;word-spacing:0px;fill:#000000;fill-opacity:1;stroke:none;stroke-width:1px;stroke-linecap:butt;stroke-linejoin:miter;stroke-opacity:1"
     x="10.826373"
     y="36.115974"
     id="text3350"
     sodipodi:linespacing="125%"
     transform="scale(0.9547024,1.0474468)"><tspan
       sodipodi:role="line"
       id="tspan3352"
       x="10.826373"
       y="36.115974"
       style="-inkscape-font-specification:'.Beirut PUA, Bold';font-family:'.Beirut PUA';font-weight:bold;font-style:normal;font-stretch:normal;font-variant:normal;font-size:39.8670011px;text-anchor:start;text-align:start;writing-mode:lr;line-height:125%">SEBOL</tspan></text>
  <path
     style="fill:none;fill-rule:evenodd;stroke:#000000;stroke-width:0.77514601px;stroke-linecap:butt;stroke-linejoin:miter;stroke-opacity:1"
     d="M 2.0092844,44.64082 C 191.22942,43.372084 191.22942,43.372084 191.22942,43.372084"
     id="path3354"
     inkscape:connector-curvature="0" />
</svg>
