<?xml version="1.0" standalone="no"?>
<!DOCTYPE svg PUBLIC "-//W3C//DTD SVG 20010904//EN"
 "http://www.w3.org/TR/2001/REC-SVG-20010904/DTD/svg10.dtd">
<svg version="1.0" xmlns="http://www.w3.org/2000/svg"
 width="208.000000pt" height="95.000000pt" viewBox="0 0 208.000000 95.000000"
 preserveAspectRatio="xMidYMid meet">

<g transform="translate(0.000000,95.000000) scale(0.100000,-0.100000)"
fill="#000000" stroke="none">
<path d="M1531 802 c-46 -23 -71 -59 -78 -111 -6 -42 -5 -43 23 -39 23 2 30 9
35 38 23 111 189 104 189 -7 0 -53 -18 -74 -113 -132 -46 -27 -90 -58 -100
-68 -22 -25 -47 -87 -47 -118 l0 -25 160 0 160 0 0 25 0 25 -130 0 c-77 0
-130 4 -130 10 0 23 68 83 131 116 38 20 83 52 100 72 29 33 31 39 27 98 -3
44 -10 69 -23 85 -44 49 -141 64 -204 31z"/>
<path d="M1771 588 c-26 -187 -27 -168 5 -168 15 0 36 8 47 18 27 24 108 23
136 -2 72 -65 29 -196 -65 -196 -47 0 -82 19 -96 52 -10 21 -20 28 -40 28 -34
0 -36 -19 -8 -65 25 -41 75 -65 133 -65 92 0 149 43 168 125 18 81 -10 143
-80 180 -34 17 -106 17 -145 0 -18 -8 -18 -5 -11 51 4 32 9 62 12 67 2 4 49 7
104 7 99 0 99 0 99 25 l0 25 -124 0 -124 0 -11 -82z"/>
<path d="M20 472 c0 -154 2 -171 22 -212 27 -53 68 -79 137 -87 102 -12 178
31 200 112 6 22 11 111 11 198 l0 157 -44 0 -44 0 -4 -171 -3 -171 -29 -25
c-24 -21 -37 -24 -69 -20 -76 10 -82 24 -85 217 l-4 170 -44 0 -44 0 0 -168z"/>
<path d="M482 413 l3 -227 45 0 45 0 3 82 3 82 70 0 c119 0 169 35 177 123 6
76 -16 122 -70 147 -35 16 -66 20 -161 20 l-117 0 2 -227z m238 127 c27 -27
25 -66 -5 -95 -20 -21 -34 -25 -80 -25 l-55 0 0 70 0 70 60 0 c47 0 64 -4 80
-20z"/>
<path d="M910 413 l0 -228 137 3 c193 5 233 28 233 137 0 38 -5 52 -30 77
l-30 30 25 30 c31 37 33 85 3 123 -35 45 -74 55 -213 55 l-125 0 0 -227z m251
137 c23 -13 25 -47 2 -72 -13 -14 -31 -18 -90 -18 l-73 0 0 50 0 50 71 0 c39
0 79 -5 90 -10z m15 -185 c20 -27 17 -62 -6 -85 -16 -16 -33 -20 -95 -20 l-75
0 0 66 0 67 81 -5 c65 -4 85 -9 95 -23z"/>
<path d="M1223 50 c0 -25 2 -35 4 -22 2 12 2 32 0 45 -2 12 -4 2 -4 -23z"/>
</g>
</svg>
